<svg t="1658114009397" class="icon" viewBox="0 0 1024 1024" version="1.1" xmlns="http://www.w3.org/2000/svg" p-id="1995" width="200" height="200"><path d="M480 170.666667a32 32 0 0 1 32-32h298.666667A117.333333 117.333333 0 0 1 928 256v512A117.333333 117.333333 0 0 1 810.666667 885.333333H213.333333A117.333333 117.333333 0 0 1 96 768v-50.005333c0-31.104 12.373333-60.928 34.346667-82.944l72.874666-72.832a74.666667 74.666667 0 0 1 105.557334 0L384 637.397333l160.554667-160.512a74.666667 74.666667 0 0 1 105.557333 0l213.888 213.845334V256c0-29.44-23.893333-53.333333-53.333333-53.333333h-298.666667a32 32 0 0 1-32-32z m382.677333 609.28l-257.792-257.834667a10.666667 10.666667 0 0 0-15.104 0L406.613333 705.28a32 32 0 0 1-45.226666 0l-97.834667-97.834667a10.666667 10.666667 0 0 0-15.104 0l-72.832 72.832a53.333333 53.333333 0 0 0-15.616 37.717334V768c0 29.44 23.893333 53.333333 53.333333 53.333333h597.333334a53.333333 53.333333 0 0 0 52.010666-41.386666z" p-id="1996" fill="#bfbfbf"></path><path d="M725.333333 341.333333a42.666667 42.666667 0 1 1-85.333333 0 42.666667 42.666667 0 0 1 85.333333 0z" p-id="1997" fill="#bfbfbf"></path><path d="M53.333333 85.333333A32 32 0 0 1 85.333333 53.333333h256a32 32 0 0 1 0 64H85.333333A32 32 0 0 1 53.333333 85.333333zM53.333333 256A32 32 0 0 1 85.333333 224h256a32 32 0 0 1 0 64H85.333333A32 32 0 0 1 53.333333 256zM53.333333 426.666667A32 32 0 0 1 85.333333 394.666667h256a32 32 0 0 1 0 64H85.333333a32 32 0 0 1-32-32z" p-id="1998" fill="#bfbfbf"></path></svg>
